<svg width="77" height="65" viewBox="0 0 77 65" fill="none" xmlns="http://www.w3.org/2000/svg">
<path d="M70.4767 39.0574C71.1767 39.3574 71.6767 39.6574 72.3767 39.8574C75.7767 41.1574 77.5767 44.8574 76.4767 48.2574C75.2767 51.9574 74.1767 55.6574 73.0767 59.4574C71.9767 63.2574 68.0767 65.5574 64.2767 64.5574C62.1767 64.0574 60.1767 63.4574 58.0767 63.0574C55.4767 62.6574 52.8767 62.4574 50.2767 62.2574C47.7767 62.3574 45.4767 60.5574 44.8767 58.0574C44.7767 57.1574 43.9767 56.4574 43.0767 56.4574C40.8767 56.4574 39.2767 55.2574 37.4767 54.2574C35.6767 53.2574 33.7767 52.4574 31.9767 51.6574C31.5767 51.5574 31.1767 51.5574 30.7767 51.6574C28.1767 52.6574 25.6767 51.9574 23.1767 51.5574C21.8767 51.3574 20.4767 50.9574 19.1767 50.7574C18.8767 50.6574 18.6767 50.6574 18.3767 50.7574C15.7767 51.4574 13.0767 51.3574 10.4767 50.5574C9.1767 50.2574 8.1767 49.3574 7.7767 48.1574C6.9767 45.9574 6.1767 43.7574 5.3767 41.5574C5.0767 40.7574 4.5767 39.9574 4.1767 39.1574C3.0767 37.3574 1.8767 35.5574 0.876702 33.7574C-0.223298 31.7574 -0.323298 29.4574 0.776702 27.4574C2.4767 23.9574 4.0767 20.3574 5.5767 16.7574C6.1767 15.3574 7.1767 14.2574 8.5767 13.6574C10.6767 12.6574 12.7767 11.6574 14.9767 10.7574C15.8767 10.4574 16.7767 10.4574 17.5767 10.6574C19.1767 10.9574 20.7767 10.5574 22.0767 9.7574C24.5767 8.3574 27.0767 7.1574 29.6767 6.0574C30.1767 5.8574 30.7767 5.8574 31.3767 5.9574C32.3767 6.0574 33.3767 6.1574 34.3767 6.3574C37.9767 6.9574 40.2767 4.6574 42.7767 2.8574C42.9767 2.6574 43.1767 2.5574 43.2767 2.3574C45.2767 0.157403 48.4767 -0.642596 51.2767 0.557404C52.3767 1.0574 53.4767 1.9574 54.3767 3.0574C55.9767 4.8574 56.3767 5.0574 58.5767 4.2574C60.3767 3.5574 62.2767 3.0574 64.0767 4.2574C64.4767 4.4574 64.8767 4.5574 65.2767 4.6574C67.4767 4.9574 68.5767 6.5574 69.2767 8.3574C71.2767 13.7574 73.0767 19.2574 72.6767 25.0574C72.3767 29.1574 71.7767 33.1574 71.1767 37.2574C70.9767 37.8574 70.7767 38.4574 70.4767 39.0574ZM53.0767 41.8574C54.7767 41.6574 56.3767 41.4574 58.0767 41.0574C60.1767 40.4574 62.4767 40.4574 64.5767 41.0574C65.4767 41.4574 66.6767 41.1574 67.1767 40.2574C67.8767 39.1574 68.4767 37.9574 68.8767 36.6574C69.2767 34.7574 69.5767 32.7574 69.7767 30.8574C70.3767 27.2574 70.4767 23.6574 69.9767 20.0574C69.6767 18.2574 69.2767 16.5574 68.7767 14.5574C67.2767 18.1574 67.2767 18.1574 65.8767 17.7574C65.9767 15.9574 65.9767 14.0574 65.8767 12.2574C65.5767 10.2574 65.0767 8.2574 64.4767 6.2574C64.1767 5.8574 63.6767 5.5574 63.1767 5.6574C61.3767 6.2574 59.6767 6.9574 57.8767 7.6574C56.2767 8.2574 54.8767 8.4574 53.6767 6.9574C53.3767 6.6574 53.0767 6.4574 52.7767 6.1574L51.7767 12.8574H51.3767C51.2767 12.5574 51.2767 12.2574 51.1767 11.9574C50.6767 9.6574 50.3767 7.2574 49.6767 5.0574C48.9767 2.8574 47.3767 1.3574 44.7767 2.9574C42.7767 4.1574 40.6767 5.3574 38.7767 6.7574C37.4767 7.7574 36.1767 8.4574 34.4767 7.9574C34.1767 7.9574 33.7767 7.9574 33.4767 8.0574C34.1767 12.1574 34.1767 12.6574 33.2767 15.0574C32.8767 13.7574 32.4767 12.5574 32.0767 11.3574C31.1767 8.7574 28.9767 7.9574 26.5767 9.2574C25.3767 9.8574 24.2767 10.6574 23.1767 11.4574C21.4767 12.9574 19.1767 13.4574 16.9767 12.9574V18.5574H16.7767C16.6767 18.1574 16.4767 17.8574 16.3767 17.4574C15.8767 16.3574 15.2767 15.3574 14.6767 14.3574C13.8767 13.2574 12.2767 13.0574 11.2767 13.9574C11.2767 13.9574 11.1767 13.9574 11.1767 14.0574C8.6767 15.9574 6.4767 17.9574 5.6767 21.1574C5.2767 22.2574 4.7767 23.2574 4.1767 24.2574C3.5767 25.4574 2.7767 26.6574 2.2767 27.9574C1.3767 30.4574 2.0767 33.2574 4.0767 34.9574C4.0767 32.3574 3.8767 29.7574 5.5767 27.6574C5.6767 28.0574 5.6767 28.5574 5.6767 28.9574C5.5767 30.2574 5.5767 31.5574 5.6767 32.8574C6.2767 37.8574 7.7767 42.6574 9.7767 47.1574C9.9767 47.8574 10.7767 48.3574 11.4767 48.1574C13.7767 47.8574 16.0767 47.5574 18.3767 47.1574C18.9767 46.9574 19.5767 46.7574 20.0767 46.4574L19.6767 46.3574C19.1767 45.1574 18.7767 43.8574 18.5767 42.4574C18.4767 38.9574 18.7767 35.4574 18.7767 31.9574C18.7767 28.4574 19.4767 25.0574 18.2767 21.7574C18.2767 21.6574 18.3767 21.4574 18.3767 21.2574L18.6767 21.1574C19.5767 22.3574 20.4767 23.5574 20.4767 25.1574C20.3767 27.3574 20.1767 29.4574 20.0767 31.6574C19.9767 35.0574 20.1767 38.4574 20.7767 41.8574C20.8767 43.2574 21.5767 44.5574 22.6767 45.3574C23.3767 45.6574 23.9767 45.8574 24.6767 46.0574C27.8767 47.3574 31.3767 47.6574 34.6767 46.8574C35.2767 46.6574 35.9767 46.5574 36.5767 46.2574C35.8767 45.5574 35.2767 44.7574 34.6767 43.9574C32.6767 41.0574 31.8767 37.4574 32.5767 33.9574C33.5767 29.0574 34.5767 24.0574 35.6767 19.1574C35.8767 18.3574 35.9767 17.6574 36.1767 16.8574C36.4767 17.0574 36.5767 17.1574 36.5767 17.2574C36.8767 20.0574 36.7767 22.8574 36.0767 25.5574C35.1767 29.5574 34.0767 33.4574 34.7767 37.6574C35.2767 40.1574 35.9767 42.5574 38.5767 43.7574C41.9767 45.3574 45.6767 45.3574 49.2767 44.7574C51.0767 44.4574 51.0767 44.2574 50.7767 42.3574C50.7767 42.2574 50.7767 42.1574 50.7767 42.1574C50.6767 35.6574 50.5767 29.1574 52.0767 22.6574C52.7767 19.9574 54.0767 17.5574 55.5767 14.8574C55.6767 15.1574 55.6767 15.3574 55.6767 15.6574C55.4767 16.5574 55.3767 17.5574 55.0767 18.4574C53.1767 25.0574 52.2767 31.8574 52.5767 38.7574C52.5767 39.7574 52.8767 40.8574 53.0767 41.8574ZM68.6767 48.2574L68.2767 48.6574C67.6767 48.4574 67.1767 48.2574 66.5767 48.0574C64.4767 47.1574 62.2767 46.4574 60.0767 45.8574C58.2767 45.3574 56.2767 45.2574 54.3767 45.5574C52.6767 45.8574 51.1767 46.9574 49.6767 47.8574C49.0767 48.1574 48.5767 48.5574 48.1767 49.1574C46.8767 51.3574 47.0767 53.9574 46.9767 56.4574C46.9767 58.0574 48.0767 59.4574 49.6767 59.6574C50.5767 59.8574 51.5767 59.9574 52.4767 60.0574C56.5767 60.0574 60.7767 60.8574 64.7767 62.0574C67.2767 62.8574 69.8767 61.5574 70.7767 59.1574C70.8767 58.8574 70.9767 58.6574 70.9767 58.3574C71.3767 56.4574 71.9767 54.5574 72.4767 52.6574C72.9767 50.9574 73.5767 49.3574 74.1767 47.6574C74.8767 45.4574 73.7767 43.1574 71.7767 42.2574C70.2767 41.4574 69.0767 41.2574 67.9767 42.8574C67.7767 43.0574 67.4767 43.2574 67.1767 43.3574L64.3767 44.8574C66.0767 45.6574 68.0767 46.0574 68.6767 48.2574ZM44.6767 54.5574L45.5767 48.2574C44.0767 48.0574 42.5767 47.7574 41.0767 47.5574C40.5767 47.6574 39.9767 47.8574 39.5767 48.1574C38.6767 48.6574 37.6767 49.0574 36.6767 49.3574C35.3767 49.5574 33.9767 49.6574 32.6767 49.7574C36.4767 52.3574 39.9767 54.7574 44.6767 54.5574ZM21.8767 49.6574C24.1767 50.6574 26.8767 50.9574 29.3767 50.5574C29.5767 50.4574 29.8767 50.1574 30.0767 49.9574C28.0767 49.5574 26.3767 49.3574 24.5767 48.9574C23.5767 48.5574 22.4767 48.8574 21.8767 49.6574Z" fill="black"/>
</svg>
